Coordinates
version=1
nRows=11
nColumns=63
inDegrees=yes

Units are S.I. units (second, meters, Newtons, ...)
If the header above contains a line with 'inDegrees', this indicates whether rotational values are in degrees (yes) or radians (no).

endheader
time	pelvis_tilt	pelvis_list	pelvis_rotation	pelvis_tx	pelvis_ty	pelvis_tz	hip_flexion_r	hip_adduction_r	hip_rotation_r	knee_angle_r	knee_angle_r_beta	ankle_angle_r	subtalar_angle_r	mtp_angle_r	hip_flexion_l	hip_adduction_l	hip_rotation_l	knee_angle_l	knee_angle_l_beta	ankle_angle_l	subtalar_angle_l	mtp_angle_l	L5_S1_Flex_Ext	L5_S1_Lat_Bending	L5_S1_axial_rotation	L4_L5_Flex_Ext	L4_L5_Lat_Bending	L4_L5_axial_rotation	L3_L4_Flex_Ext	L3_L4_Lat_Bending	L3_L4_axial_rotation	L2_L3_Flex_Ext	L2_L3_Lat_Bending	L2_L3_axial_rotation	L1_L2_Flex_Ext	L1_L2_Lat_Bending	L1_L2_axial_rotation	L1_T12_Flex_Ext	L1_T12_Lat_Bending	L1_T12_axial_rotation	Abs_r3	Abs_r2	Abs_r1	Abs_t1	Abs_t2	neck_flexion	neck_bending	neck_rotation	arm_flex_r	arm_add_r	arm_rot_r	elbow_flex_r	pro_sup_r	wrist_flex_r	wrist_dev_r	arm_flex_l	arm_add_l	arm_rot_l	elbow_flex_l	pro_sup_l	wrist_flex_l	wrist_dev_l
0.000000	-0.366336	-3.906813	89.978640	0.170280	0.449479	1.098772	5.585092	-2.347068	-15.947072	11.040443	0.192692	31.676084	15.187989	0.000000	6.029394	0.915013	7.256453	6.093387	0.106350	27.888280	-7.020210	0.000000	-0.038979	-0.048073	1.700799	-0.072389	-0.063937	1.807098	-0.064039	-0.116884	1.807098	-0.044550	-0.116884	1.488199	-0.036196	-0.098030	1.381899	-0.022273	-0.074465	1.275599	-0.278426	-0.543810	9.459331	0.000000	0.000000	23.277723	1.391463	-15.513701	15.307855	-9.094241	52.506878	50.510445	88.927516	18.152884	17.483115	16.223508	-9.445472	58.041313	52.883698	69.785479	3.972726	0.116993
0.016667	-0.260675	-3.986263	90.206202	0.169340	0.448822	1.098495	5.646742	-2.276861	-16.151250	11.195221	0.195393	31.719919	15.018635	0.000000	6.410169	0.796490	6.064173	7.022186	0.122560	28.546921	-5.138249	0.000000	-0.027646	-0.023899	1.666174	-0.051340	-0.031786	1.770310	-0.045419	-0.058109	1.770310	-0.031596	-0.058109	1.457903	-0.025672	-0.048735	1.353767	-0.015797	-0.037020	1.249631	-0.197469	-0.270354	9.266762	0.000000	0.000000	23.153337	0.895596	-14.994748	14.429905	-9.605517	49.755273	53.436884	88.672724	19.106989	19.574714	15.556713	-9.952510	57.083808	55.401647	66.165638	3.452619	2.979515
0.033333	-0.232291	-4.039600	90.367437	0.168579	0.448163	1.098056	5.653890	-2.270228	-16.294990	11.266582	0.196639	31.806355	14.861972	0.000000	6.650257	0.778837	5.357961	7.689599	0.134209	28.952571	-3.969507	0.000000	-0.016170	-0.011631	1.626596	-0.030029	-0.015470	1.728259	-0.026565	-0.028280	1.728259	-0.018480	-0.028280	1.423272	-0.015015	-0.023719	1.321610	-0.009239	-0.018017	1.219947	-0.115498	-0.131576	9.046641	0.000000	0.000000	23.059993	0.553390	-14.486192	13.732344	-10.140313	47.860914	56.018882	88.487075	19.426859	20.931165	14.868292	-10.441406	56.019281	57.736440	63.762788	3.169935	5.495291
0.050000	-0.271825	-4.071209	90.467448	0.167977	0.447505	1.097486	5.617796	-2.319781	-16.381514	11.269026	0.196682	31.929453	14.715024	0.000000	6.769465	0.849569	5.073899	8.126415	0.141833	29.138484	-3.428088	0.000000	-0.004686	-0.009800	1.582949	-0.008703	-0.013033	1.681884	-0.007699	-0.023827	1.681884	-0.005356	-0.023827	1.385081	-0.004352	-0.019983	1.286146	-0.002678	-0.015180	1.187212	-0.033473	-0.110855	8.803889	0.000000	0.000000	22.998081	0.348992	-13.986630	13.190363	-10.690917	46.725535	58.281160	88.363588	19.180709	21.629812	14.163799	-10.910620	54.867841	59.893143	62.445837	3.095873	7.681948
0.066667	-0.369916	-4.085471	90.511339	0.167516	0.446850	1.096812	5.549722	-2.418128	-16.414041	11.217048	0.195774	32.083275	14.574816	0.000000	6.787600	0.996196	5.148072	8.363423	0.145969	29.137917	-3.428097	0.000000	0.006670	-0.016935	1.536119	0.012387	-0.022524	1.632126	0.010958	-0.041176	1.632126	0.007623	-0.041176	1.344104	0.006194	-0.034534	1.248096	0.003811	-0.026232	1.152089	0.047643	-0.191572	8.543431	0.000000	0.000000	22.967989	0.266549	-13.494658	12.779156	-11.249614	46.250871	60.248435	88.295282	18.436755	21.748003	13.448787	-11.358611	53.649597	61.876819	62.083693	3.201630	9.557115
0.083333	-0.517205	-4.086771	90.504210	0.167177	0.446200	1.096066	5.460926	-2.557880	-16.395793	11.125147	0.194170	32.261882	14.438372	0.000000	6.724473	1.206232	5.516565	8.431412	0.147156	28.984126	-3.883637	0.000000	0.017765	-0.031568	1.486989	0.032991	-0.041986	1.579926	0.029186	-0.076755	1.579926	0.020303	-0.076755	1.301115	0.016496	-0.064374	1.208179	0.010151	-0.048899	1.115242	0.126891	-0.357106	8.270187	0.000000	0.000000	22.970104	0.290207	-13.008872	12.473914	-11.808692	46.338656	61.945427	88.275173	17.263213	21.363083	12.728810	-11.783837	52.384661	63.692533	62.545263	3.458406	11.138418
0.100000	-0.704332	-4.079491	90.451167	0.166940	0.445558	1.095276	5.362672	-2.731647	-16.329991	11.007821	0.192123	32.459335	14.302716	0.000000	6.599890	1.467189	6.115460	8.361170	0.145930	28.710367	-4.708811	0.000000	0.028463	-0.052230	1.436446	0.052859	-0.069466	1.526224	0.046762	-0.126992	1.526224	0.032530	-0.126992	1.256890	0.026431	-0.106507	1.167112	0.016264	-0.080904	1.077335	0.203308	-0.590836	7.989082	0.000000	0.000000	23.004816	0.404112	-12.527870	12.249830	-12.360437	46.890624	63.396855	88.296281	15.728298	20.552399	12.009421	-12.184758	51.093141	65.345351	63.699456	3.837398	12.443488
0.116667	-0.921936	-4.068013	90.357310	0.166785	0.444924	1.094472	5.266217	-2.932038	-16.219856	10.879566	0.189884	32.669696	14.164873	0.000000	6.433659	1.766578	6.880843	8.183488	0.142829	28.349897	-5.817725	0.000000	0.038630	-0.077451	1.385374	0.071741	-0.103010	1.471960	0.063466	-0.188314	1.471960	0.044151	-0.188314	1.212203	0.035872	-0.157938	1.125617	0.022073	-0.119972	1.039031	0.275934	-0.876142	7.705037	0.000000	0.000000	23.072513	0.592412	-12.050246	12.082096	-12.897135	47.808509	64.627437	88.351623	13.900225	19.393296	11.296175	-12.559832	49.795147	66.840335	65.415179	4.309806	13.489951
0.133333	-1.160658	-4.056722	90.227743	0.166695	0.444303	1.093683	5.182825	-3.151664	-16.068608	10.754880	0.187708	32.887026	14.021867	0.000000	6.245589	2.091913	7.748797	7.929153	0.138390	27.935972	-7.124481	0.000000	0.048133	-0.105762	1.334659	0.089387	-0.140664	1.418075	0.079077	-0.257150	1.418075	0.055011	-0.257150	1.167827	0.044696	-0.215670	1.084411	0.027503	-0.163826	1.000994	0.343806	-1.196403	7.422975	0.000000	0.000000	23.173582	0.839252	-11.574599	11.945905	-13.411073	48.994045	65.661893	88.434218	11.847211	17.963121	10.594623	-12.907518	48.510789	68.182551	67.561339	4.846829	14.295435
0.150000	-1.411138	-4.050000	90.067569	0.166650	0.443694	1.092940	5.123754	-3.383133	-15.879468	10.648260	0.185847	33.105387	13.870723	0.000000	6.055488	2.430706	8.655406	7.628956	0.133150	27.501847	-8.543184	0.000000	0.056835	-0.135694	1.285186	0.105548	-0.180473	1.365510	0.093374	-0.329927	1.365510	0.064956	-0.329927	1.124538	0.052777	-0.276707	1.044213	0.032475	-0.210190	0.963889	0.405965	-1.534999	7.147818	0.000000	0.000000	23.308414	1.128779	-11.099524	11.816449	-13.894538	50.348967	66.524942	88.537083	9.637470	16.339220	9.910320	-13.226275	47.260178	69.377062	70.006846	5.419663	14.877570
0.166667	-1.664016	-4.052231	89.881891	0.166630	0.443101	1.092271	5.100265	-3.619057	-15.655657	10.574205	0.184555	33.318839	13.708466	0.000000	5.883164	2.770469	9.536753	7.313684	0.127648	27.080780	-9.987938	0.000000	0.064602	-0.165778	1.237839	0.119973	-0.220484	1.315204	0.106135	-0.403072	1.315204	0.073834	-0.403072	1.083109	0.059990	-0.338054	1.005744	0.036914	-0.256790	0.928379	0.461448	-1.875310	6.884489	0.000000	0.000000	23.477395	1.445141	-10.623618	11.668920	-14.339816	51.775009	67.241303	88.653236	7.339219	14.598940	9.248819	-13.514563	46.063422	70.428935	72.620605	5.999509	15.253982
